<svg id="Layer_3" enable-background="new 0 0 64 64" height="512" viewBox="0 0 64 64" width="512" xmlns="http://www.w3.org/2000/svg"><g><path d="m36 40v-2c0-2.206-1.794-4-4-4s-4 1.794-4 4v2c0 2.206 1.794 4 4 4s4-1.794 4-4zm-2 0c0 1.103-.897 2-2 2s-2-.897-2-2v-2c0-1.103.897-2 2-2s2 .897 2 2z"/><path d="m48 49v-2c0-2.206-1.794-4-4-4s-4 1.794-4 4v2c0 2.206 1.794 4 4 4s4-1.794 4-4zm-2 0c0 1.103-.897 2-2 2s-2-.897-2-2v-2c0-1.103.897-2 2-2s2 .897 2 2z"/><path d="m60 53h-4-4c-.771 0-1.468.301-2 .78-.532-.48-1.229-.78-2-.78h-4-4c-.367 0-.714.076-1.04.197.014-.066.04-.127.04-.197v-6c0-1.654-1.346-3-3-3h-4-4c-1.654 0-3 1.346-3 3v6c0 .07.026.131.04.197-.326-.121-.673-.197-1.04-.197h-4-4c-.771 0-1.468.301-2 .78-.532-.48-1.229-.78-2-.78h-4-4c-1.654 0-3 1.346-3 3v6c0 .552.447 1 1 1h12 12c.553 0 1-.448 1-1v-6c0-.771-.301-1.468-.78-2h11.56c-.48.532-.78 1.229-.78 2v6c0 .552.447 1 1 1h12 12c.553 0 1-.448 1-1v-6c0-1.654-1.346-3-3-3zm-57 3c0-.551.448-1 1-1h8c.552 0 1 .449 1 1v5h-1v-4h-2v4h-4v-4h-2v4h-1zm22 5h-1v-4h-2v4h-4v-4h-2v4h-1v-5c0-.551.448-1 1-1h8c.552 0 1 .449 1 1zm12-9h-1v-4h-2v4h-4v-4h-2v4h-1v-5c0-.551.448-1 1-1h8c.552 0 1 .449 1 1zm2 4c0-.551.448-1 1-1h8c.552 0 1 .449 1 1v5h-1v-4h-2v4h-4v-4h-2v4h-1zm22 5h-1v-4h-2v4h-4v-4h-2v4h-1v-5c0-.551.448-1 1-1h8c.552 0 1 .449 1 1z"/><path d="m60 49v-2c0-2.206-1.794-4-4-4s-4 1.794-4 4v2c0 2.206 1.794 4 4 4s4-1.794 4-4zm-2 0c0 1.103-.897 2-2 2s-2-.897-2-2v-2c0-1.103.897-2 2-2s2 .897 2 2z"/><path d="m12 49v-2c0-2.206-1.794-4-4-4s-4 1.794-4 4v2c0 2.206 1.794 4 4 4s4-1.794 4-4zm-2 0c0 1.103-.897 2-2 2s-2-.897-2-2v-2c0-1.103.897-2 2-2s2 .897 2 2z"/><path d="m24 49v-2c0-2.206-1.794-4-4-4s-4 1.794-4 4v2c0 2.206 1.794 4 4 4s4-1.794 4-4zm-2 0c0 1.103-.897 2-2 2s-2-.897-2-2v-2c0-1.103.897-2 2-2s2 .897 2 2z"/><path d="m16.868 19.991 2.564.342c.295 1.116.739 2.185 1.328 3.192l-1.575 2.06c-.305.398-.268.96.087 1.314l2.828 2.829c.354.354.916.391 1.314.087l2.061-1.576c1.006.587 2.075 1.032 3.191 1.328l.342 2.564c.067.498.491.869.992.869h4c.501 0 .925-.371.991-.868l.342-2.564c1.116-.295 2.186-.74 3.191-1.328l2.061 1.576c.398.304.96.267 1.314-.087l2.828-2.829c.354-.354.392-.917.087-1.314l-1.575-2.06c.589-1.007 1.033-2.076 1.328-3.192l2.564-.342c.498-.067.869-.491.869-.992v-4c0-.501-.371-.925-.868-.991l-2.564-.342c-.295-1.116-.739-2.185-1.328-3.192l1.575-2.06c.305-.398.268-.96-.087-1.314l-2.828-2.829c-.354-.354-.916-.392-1.314-.087l-2.062 1.575c-1.006-.587-2.075-1.032-3.191-1.328l-.342-2.564c-.066-.497-.49-.868-.991-.868h-4c-.501 0-.925.371-.991.868l-.342 2.564c-1.116.295-2.186.74-3.191 1.328l-2.061-1.576c-.398-.304-.961-.267-1.314.087l-2.828 2.829c-.354.354-.392.917-.087 1.314l1.575 2.06c-.589 1.007-1.033 2.076-1.328 3.192l-2.564.342c-.498.067-.869.491-.869.992v4c0 .501.371.925.868.991zm1.132-4.116 2.38-.317c.422-.056.762-.373.848-.79.277-1.351.81-2.63 1.581-3.803.234-.355.218-.819-.041-1.157l-1.462-1.913 1.59-1.59 1.913 1.463c.338.258.803.275 1.157.041 1.17-.771 2.45-1.303 3.804-1.582.416-.086.733-.426.789-.848l.317-2.379h2.248l.317 2.379c.056.422.373.762.789.848 1.354.279 2.634.811 3.804 1.582.354.234.819.218 1.157-.041l1.913-1.463 1.59 1.59-1.462 1.913c-.259.338-.275.802-.041 1.157.771 1.172 1.304 2.452 1.581 3.803.086.417.426.734.848.79l2.38.317v2.249l-2.38.317c-.422.056-.762.373-.848.79-.277 1.351-.81 2.63-1.581 3.803-.234.355-.218.819.041 1.157l1.462 1.913-1.59 1.59-1.913-1.463c-.338-.259-.803-.274-1.157-.041-1.17.771-2.45 1.303-3.804 1.582-.416.086-.733.426-.789.848l-.317 2.38h-2.248l-.317-2.379c-.056-.422-.373-.762-.789-.848-1.354-.279-2.634-.811-3.804-1.582-.354-.234-.819-.218-1.157.041l-1.913 1.463-1.59-1.59 1.462-1.913c.259-.338.275-.802.041-1.157-.771-1.172-1.304-2.452-1.581-3.803-.086-.417-.426-.734-.848-.79l-2.38-.317z"/><path d="m32 26c4.963 0 9-4.038 9-9s-4.037-9-9-9-9 4.038-9 9 4.037 9 9 9zm0-16c3.859 0 7 3.14 7 7s-3.141 7-7 7-7-3.14-7-7 3.141-7 7-7z"/><path d="m9 39h10v2h2v-2h5v-2h-18c-.553 0-1 .448-1 1v3h2z"/><path d="m38 39h5v2h2v-2h10v2h2v-3c0-.552-.447-1-1-1h-18z"/></g></svg>